<svg viewBox="0 0 50 20" preserveAspectRatio="xMidYMid meet" role="img" aria-labelledby="home-dots-title home-dots-desc">
<title id="home-dots-title">A colorful distribution of dots</title>
<desc id="home-dots-desc">Three hundred colored dots stack into a bell-shaped distribution.</desc>
<g class="home-dots__marks">
<circle cx="27" cy="19" style="--i:0" />
<circle cx="21" cy="19" style="--i:1" />
<circle cx="32" cy="19" style="--i:2" />
<circle cx="30" cy="19" style="--i:3" />
<circle cx="38" cy="19" style="--i:4" />
<circle cx="31" cy="19" style="--i:5" />
<circle cx="15" cy="19" style="--i:6" />
<circle cx="23" cy="19" style="--i:7" />
<circle cx="40" cy="19" style="--i:8" />
<circle cx="39" cy="19" style="--i:9" />
<circle cx="30" cy="18" style="--i:10" />
<circle cx="25" cy="19" style="--i:11" />
<circle cx="28" cy="19" style="--i:12" />
<circle cx="25" cy="18" style="--i:13" />
<circle cx="25" cy="17" style="--i:14" />
<circle cx="26" cy="19" style="--i:15" />
<circle cx="34" cy="19" style="--i:16" />
<circle cx="25" cy="16" style="--i:17" />
<circle cx="24" cy="19" style="--i:18" />
<circle cx="23" cy="18" style="--i:19" />
<circle cx="37" cy="19" style="--i:20" />
<circle cx="26" cy="18" style="--i:21" />
<circle cx="35" cy="19" style="--i:22" />
<circle cx="35" cy="18" style="--i:23" />
<circle cx="30" cy="17" style="--i:24" />
<circle cx="23" cy="17" style="--i:25" />
<circle cx="35" cy="17" style="--i:26" />
<circle cx="32" cy="18" style="--i:27" />
<circle cx="18" cy="19" style="--i:28" />
<circle cx="35" cy="16" style="--i:29" />
<circle cx="26" cy="17" style="--i:30" />
<circle cx="33" cy="19" style="--i:31" />
<circle cx="19" cy="19" style="--i:32" />
<circle cx="13" cy="19" style="--i:33" />
<circle cx="32" cy="17" style="--i:34" />
<circle cx="22" cy="19" style="--i:35" />
<circle cx="23" cy="16" style="--i:36" />
<circle cx="32" cy="16" style="--i:37" />
<circle cx="21" cy="18" style="--i:38" />
<circle cx="20" cy="19" style="--i:39" />
<circle cx="36" cy="19" style="--i:40" />
<circle cx="26" cy="16" style="--i:41" />
<circle cx="35" cy="15" style="--i:42" />
<circle cx="11" cy="19" style="--i:43" />
<circle cx="18" cy="18" style="--i:44" />
<circle cx="18" cy="17" style="--i:45" />
<circle cx="26" cy="15" style="--i:46" />
<circle cx="22" cy="18" style="--i:47" />
<circle cx="31" cy="18" style="--i:48" />
<circle cx="11" cy="18" style="--i:49" />
<circle cx="20" cy="18" style="--i:50" />
<circle cx="20" cy="17" style="--i:51" />
<circle cx="24" cy="18" style="--i:52" />
<circle cx="28" cy="18" style="--i:53" />
<circle cx="41" cy="19" style="--i:54" />
<circle cx="20" cy="16" style="--i:55" />
<circle cx="21" cy="17" style="--i:56" />
<circle cx="31" cy="17" style="--i:57" />
<circle cx="24" cy="17" style="--i:58" />
<circle cx="36" cy="18" style="--i:59" />
<circle cx="16" cy="19" style="--i:60" />
<circle cx="34" cy="18" style="--i:61" />
<circle cx="14" cy="19" style="--i:62" />
<circle cx="42" cy="19" style="--i:63" />
<circle cx="26" cy="14" style="--i:64" />
<circle cx="23" cy="15" style="--i:65" />
<circle cx="22" cy="17" style="--i:66" />
<circle cx="32" cy="15" style="--i:67" />
<circle cx="29" cy="19" style="--i:68" />
<circle cx="24" cy="16" style="--i:69" />
<circle cx="26" cy="13" style="--i:70" />
<circle cx="21" cy="16" style="--i:71" />
<circle cx="17" cy="19" style="--i:72" />
<circle cx="26" cy="12" style="--i:73" />
<circle cx="31" cy="16" style="--i:74" />
<circle cx="22" cy="16" style="--i:75" />
<circle cx="27" cy="18" style="--i:76" />
<circle cx="20" cy="15" style="--i:77" />
<circle cx="19" cy="18" style="--i:78" />
<circle cx="25" cy="15" style="--i:79" />
<circle cx="35" cy="14" style="--i:80" />
<circle cx="23" cy="14" style="--i:81" />
<circle cx="20" cy="14" style="--i:82" />
<circle cx="13" cy="18" style="--i:83" />
<circle cx="17" cy="18" style="--i:84" />
<circle cx="15" cy="18" style="--i:85" />
<circle cx="18" cy="16" style="--i:86" />
<circle cx="16" cy="18" style="--i:87" />
<circle cx="28" cy="17" style="--i:88" />
<circle cx="23" cy="13" style="--i:89" />
<circle cx="15" cy="17" style="--i:90" />
<circle cx="19" cy="17" style="--i:91" />
<circle cx="26" cy="11" style="--i:92" />
<circle cx="30" cy="16" style="--i:93" />
<circle cx="31" cy="15" style="--i:94" />
<circle cx="25" cy="14" style="--i:95" />
<circle cx="44" cy="19" style="--i:96" />
<circle cx="20" cy="13" style="--i:97" />
<circle cx="33" cy="18" style="--i:98" />
<circle cx="23" cy="12" style="--i:99" />
<circle cx="30" cy="15" style="--i:100" />
<circle cx="24" cy="15" style="--i:101" />
<circle cx="22" cy="15" style="--i:102" />
<circle cx="24" cy="14" style="--i:103" />
<circle cx="25" cy="13" style="--i:104" />
<circle cx="11" cy="17" style="--i:105" />
<circle cx="37" cy="18" style="--i:106" />
<circle cx="31" cy="14" style="--i:107" />
<circle cx="16" cy="17" style="--i:108" />
<circle cx="11" cy="16" style="--i:109" />
<circle cx="28" cy="16" style="--i:110" />
<circle cx="31" cy="13" style="--i:111" />
<circle cx="32" cy="14" style="--i:112" />
<circle cx="27" cy="17" style="--i:113" />
<circle cx="24" cy="13" style="--i:114" />
<circle cx="28" cy="15" style="--i:115" />
<circle cx="19" cy="16" style="--i:116" />
<circle cx="20" cy="12" style="--i:117" />
<circle cx="39" cy="18" style="--i:118" />
<circle cx="19" cy="15" style="--i:119" />
<circle cx="24" cy="12" style="--i:120" />
<circle cx="17" cy="17" style="--i:121" />
<circle cx="40" cy="18" style="--i:122" />
<circle cx="22" cy="14" style="--i:123" />
<circle cx="33" cy="17" style="--i:124" />
<circle cx="33" cy="16" style="--i:125" />
<circle cx="17" cy="16" style="--i:126" />
<circle cx="28" cy="14" style="--i:127" />
<circle cx="20" cy="11" style="--i:128" />
<circle cx="6" cy="19" style="--i:129" />
<circle cx="34" cy="17" style="--i:130" />
<circle cx="30" cy="14" style="--i:131" />
<circle cx="17" cy="15" style="--i:132" />
<circle cx="9" cy="19" style="--i:133" />
<circle cx="20" cy="10" style="--i:134" />
<circle cx="33" cy="15" style="--i:135" />
<circle cx="29" cy="18" style="--i:136" />
<circle cx="24" cy="11" style="--i:137" />
<circle cx="12" cy="19" style="--i:138" />
<circle cx="35" cy="13" style="--i:139" />
<circle cx="33" cy="14" style="--i:140" />
<circle cx="31" cy="12" style="--i:141" />
<circle cx="18" cy="15" style="--i:142" />
<circle cx="30" cy="13" style="--i:143" />
<circle cx="19" cy="14" style="--i:144" />
<circle cx="21" cy="15" style="--i:145" />
<circle cx="15" cy="16" style="--i:146" />
<circle cx="28" cy="13" style="--i:147" />
<circle cx="21" cy="14" style="--i:148" />
<circle cx="32" cy="13" style="--i:149" />
<circle cx="32" cy="12" style="--i:150" />
<circle cx="18" cy="14" style="--i:151" />
<circle cx="37" cy="17" style="--i:152" />
<circle cx="36" cy="17" style="--i:153" />
<circle cx="21" cy="13" style="--i:154" />
<circle cx="29" cy="17" style="--i:155" />
<circle cx="18" cy="13" style="--i:156" />
<circle cx="19" cy="13" style="--i:157" />
<circle cx="8" cy="19" style="--i:158" />
<circle cx="34" cy="16" style="--i:159" />
<circle cx="28" cy="12" style="--i:160" />
<circle cx="29" cy="16" style="--i:161" />
<circle cx="18" cy="12" style="--i:162" />
<circle cx="14" cy="18" style="--i:163" />
<circle cx="33" cy="13" style="--i:164" />
<circle cx="13" cy="17" style="--i:165" />
<circle cx="25" cy="12" style="--i:166" />
<circle cx="19" cy="12" style="--i:167" />
<circle cx="23" cy="11" style="--i:168" />
<circle cx="23" cy="10" style="--i:169" />
<circle cx="39" cy="17" style="--i:170" />
<circle cx="21" cy="12" style="--i:171" />
<circle cx="20" cy="9" style="--i:172" />
<circle cx="7" cy="19" style="--i:173" />
<circle cx="38" cy="18" style="--i:174" />
<circle cx="26" cy="10" style="--i:175" />
<circle cx="21" cy="11" style="--i:176" />
<circle cx="30" cy="12" style="--i:177" />
<circle cx="19" cy="11" style="--i:178" />
<circle cx="16" cy="16" style="--i:179" />
<circle cx="17" cy="14" style="--i:180" />
<circle cx="26" cy="9" style="--i:181" />
<circle cx="28" cy="11" style="--i:182" />
<circle cx="12" cy="18" style="--i:183" />
<circle cx="40" cy="17" style="--i:184" />
<circle cx="19" cy="10" style="--i:185" />
<circle cx="28" cy="10" style="--i:186" />
<circle cx="29" cy="15" style="--i:187" />
<circle cx="27" cy="16" style="--i:188" />
<circle cx="24" cy="10" style="--i:189" />
<circle cx="19" cy="9" style="--i:190" />
<circle cx="25" cy="11" style="--i:191" />
<circle cx="30" cy="11" style="--i:192" />
<circle cx="15" cy="15" style="--i:193" />
<circle cx="22" cy="13" style="--i:194" />
<circle cx="20" cy="8" style="--i:195" />
<circle cx="18" cy="11" style="--i:196" />
<circle cx="37" cy="16" style="--i:197" />
<circle cx="15" cy="14" style="--i:198" />
<circle cx="39" cy="16" style="--i:199" />
<circle cx="35" cy="12" style="--i:200" />
<circle cx="13" cy="16" style="--i:201" />
<circle cx="23" cy="9" style="--i:202" />
<circle cx="33" cy="12" style="--i:203" />
<circle cx="19" cy="8" style="--i:204" />
<circle cx="37" cy="15" style="--i:205" />
<circle cx="6" cy="18" style="--i:206" />
<circle cx="29" cy="14" style="--i:207" />
<circle cx="34" cy="15" style="--i:208" />
<circle cx="26" cy="8" style="--i:209" />
<circle cx="23" cy="8" style="--i:210" />
<circle cx="23" cy="7" style="--i:211" />
<circle cx="23" cy="6" style="--i:212" />
<circle cx="42" cy="18" style="--i:213" />
<circle cx="38" cy="17" style="--i:214" />
<circle cx="17" cy="13" style="--i:215" />
<circle cx="25" cy="10" style="--i:216" />
<circle cx="14" cy="17" style="--i:217" />
<circle cx="26" cy="7" style="--i:218" />
<circle cx="19" cy="7" style="--i:219" />
<circle cx="23" cy="5" style="--i:220" />
<circle cx="30" cy="10" style="--i:221" />
<circle cx="24" cy="9" style="--i:222" />
<circle cx="27" cy="15" style="--i:223" />
<circle cx="34" cy="14" style="--i:224" />
<circle cx="13" cy="15" style="--i:225" />
<circle cx="30" cy="9" style="--i:226" />
<circle cx="21" cy="10" style="--i:227" />
<circle cx="34" cy="13" style="--i:228" />
<circle cx="24" cy="8" style="--i:229" />
<circle cx="16" cy="15" style="--i:230" />
<circle cx="30" cy="8" style="--i:231" />
<circle cx="25" cy="9" style="--i:232" />
<circle cx="30" cy="7" style="--i:233" />
<circle cx="18" cy="10" style="--i:234" />
<circle cx="22" cy="12" style="--i:235" />
<circle cx="25" cy="8" style="--i:236" />
<circle cx="22" cy="11" style="--i:237" />
<circle cx="22" cy="10" style="--i:238" />
<circle cx="28" cy="9" style="--i:239" />
<circle cx="17" cy="12" style="--i:240" />
<circle cx="25" cy="7" style="--i:241" />
<circle cx="18" cy="9" style="--i:242" />
<circle cx="29" cy="13" style="--i:243" />
<circle cx="18" cy="8" style="--i:244" />
<circle cx="34" cy="12" style="--i:245" />
<circle cx="25" cy="6" style="--i:246" />
<circle cx="26" cy="6" style="--i:247" />
<circle cx="29" cy="12" style="--i:248" />
<circle cx="29" cy="11" style="--i:249" />
<circle cx="28" cy="8" style="--i:250" />
<circle cx="18" cy="7" style="--i:251" />
<circle cx="20" cy="7" style="--i:252" />
<circle cx="9" cy="18" style="--i:253" />
<circle cx="26" cy="5" style="--i:254" />
<circle cx="35" cy="11" style="--i:255" />
<circle cx="16" cy="14" style="--i:256" />
<circle cx="29" cy="10" style="--i:257" />
<circle cx="30" cy="6" style="--i:258" />
<circle cx="25" cy="5" style="--i:259" />
<circle cx="15" cy="13" style="--i:260" />
<circle cx="21" cy="9" style="--i:261" />
<circle cx="36" cy="16" style="--i:262" />
<circle cx="31" cy="11" style="--i:263" />
<circle cx="29" cy="9" style="--i:264" />
<circle cx="44" cy="18" style="--i:265" />
<circle cx="23" cy="4" style="--i:266" />
<circle cx="27" cy="14" style="--i:267" />
<circle cx="31" cy="10" style="--i:268" />
<circle cx="24" cy="7" style="--i:269" />
<circle cx="33" cy="11" style="--i:270" />
<circle cx="29" cy="8" style="--i:271" />
<circle cx="23" cy="3" style="--i:272" />
<circle cx="24" cy="6" style="--i:273" />
<circle cx="5" cy="19" style="--i:274" />
<circle cx="20" cy="6" style="--i:275" />
<circle cx="25" cy="4" style="--i:276" />
<circle cx="35" cy="10" style="--i:277" />
<circle cx="19" cy="6" style="--i:278" />
<circle cx="13" cy="14" style="--i:279" />
<circle cx="23" cy="2" style="--i:280" />
<circle cx="25" cy="3" style="--i:281" />
<circle cx="13" cy="13" style="--i:282" />
<circle cx="10" cy="19" style="--i:283" />
<circle cx="18" cy="6" style="--i:284" />
<circle cx="35" cy="9" style="--i:285" />
<circle cx="14" cy="16" style="--i:286" />
<circle cx="28" cy="7" style="--i:287" />
<circle cx="26" cy="4" style="--i:288" />
<circle cx="30" cy="5" style="--i:289" />
<circle cx="30" cy="4" style="--i:290" />
<circle cx="45" cy="19" style="--i:291" />
<circle cx="27" cy="13" style="--i:292" />
<circle cx="20" cy="5" style="--i:293" />
<circle cx="26" cy="3" style="--i:294" />
<circle cx="15" cy="12" style="--i:295" />
<circle cx="22" cy="9" style="--i:296" />
<circle cx="19" cy="5" style="--i:297" />
<circle cx="24" cy="5" style="--i:298" />
<circle cx="17" cy="11" style="--i:299" />
</g>
</svg>
